<svg width="214" height="214" viewBox="0 0 214 214" fill="none" xmlns="http://www.w3.org/2000/svg">
<path fill-rule="evenodd" clip-rule="evenodd" d="M107 214C166.094 214 214 166.094 214 107C214 47.9055 166.094 0 107 0C47.9055 0 0 47.9055 0 107C0 166.094 47.9055 214 107 214ZM155 96.3174V108L155.283 119V121.5V122.16C155.283 124.049 155.474 125.932 155.853 127.782L156 128.5L156.393 130.464C156.464 130.82 156.582 131.164 156.744 131.489L156.793 131.586C157.246 132.491 158.04 133.18 159 133.5C159.96 133.82 161.009 133.746 161.914 133.293L162.5 133L163.015 132.657C163.66 132.226 164.182 131.635 164.529 130.941C164.839 130.322 165 129.64 165 128.948V128.5V125V122.5V121.5V121.118C165 120.433 165.387 119.806 166 119.5C166.658 119.171 167.383 119 168.118 119H170.5H174H175.337C175.773 119 176.203 119.101 176.593 119.296L176.684 119.342C176.893 119.447 177.084 119.584 177.25 119.75C177.416 119.916 177.553 120.107 177.658 120.316L177.704 120.407C177.899 120.797 178 121.227 178 121.663V122V125V125.553C178 127.842 177.719 130.123 177.164 132.344L177 133L176.431 134.708C176.144 135.568 175.796 136.407 175.391 137.218L175.213 137.574C174.41 139.181 173.353 140.647 172.082 141.918L171.601 142.399C170.87 143.13 170.045 143.76 169.148 144.272C167.732 145.082 166.161 145.584 164.538 145.746L162 146H160.516C158.518 146 156.524 145.675 154.629 145.043C153.549 144.683 152.499 144.222 151.504 143.669L150.82 143.289C149.286 142.437 147.924 141.309 146.801 139.962C146.268 139.322 145.792 138.636 145.379 137.913L145.059 137.353C144.355 136.121 143.774 134.822 143.325 133.475L142.195 130.084C141.732 128.697 141.379 127.275 141.139 125.833L140.5 122L140 115V107V101.5L140.5 95.5L140.833 91.5077C140.944 90.171 141.151 88.8439 141.453 87.5369L142.5 83L143.848 79.2931C144.282 78.0999 144.817 76.9458 145.447 75.8434L145.916 75.0224C146.304 74.3423 146.757 73.7007 147.266 73.106L147.442 72.901C148.789 71.3299 150.537 70.1544 152.5 69.5L153.564 69.1809C156.174 68.3978 158.884 68 161.61 68H162.5L164.673 68.2414C166.212 68.4125 167.713 68.8567 169.099 69.5494C170.355 70.1777 171.507 71.0065 172.5 72C173.493 72.9935 174.32 74.1407 174.949 75.3974L175.306 76.1112C175.768 77.0354 176.149 77.9976 176.446 78.9872L176.826 80.254C177.275 81.7487 177.597 83.2783 177.791 84.8268L178 86.5V90.5V90.882C178 91.6172 177.829 92.3424 177.5 93L177.293 93.4146C177.103 93.7946 176.795 94.1027 176.415 94.2927C176.142 94.429 175.841 94.5 175.536 94.5H173H170H168.435C168.146 94.5 167.858 94.4645 167.578 94.3944L167.085 94.2712C166.396 94.0991 165.817 93.6347 165.5 93C165.171 92.3424 165 91.6172 165 90.882V89.5V88.0616C165 86.6924 164.832 85.3283 164.5 84L163.674 81.9351C163.559 81.648 163.387 81.3873 163.169 81.1687C162.741 80.7405 162.16 80.5 161.554 80.5H160C158.806 80.5 157.745 81.2643 157.368 82.3974L156.647 84.5582C156.549 84.8523 156.474 85.1536 156.423 85.4593L155.381 91.7142C155.127 93.2355 155 94.7751 155 96.3174ZM55 71.5439C55 70.8692 54.7482 70.2222 54.3 69.7451C53.8518 69.268 53.2439 69 52.6101 69H43.008C42.3366 69 41.7096 69.3571 41.3372 69.9518C41.1173 70.3028 41 70.7154 41 71.1373V143.7C41 144.192 41.2615 144.642 41.6754 144.863C41.845 144.953 42.0321 145 42.2217 145H53.1333C54.1643 145 55 144.11 55 143.013V71.5439ZM129 71.5607C129 70.8815 128.73 70.2302 128.25 69.75C127.77 69.2698 127.118 69 126.439 69H116.151C115.432 69 114.76 69.3595 114.361 69.958C114.126 70.3114 114 70.7267 114 71.1514V144.191C114 144.687 114.28 145.14 114.724 145.362C114.905 145.453 115.106 145.5 115.309 145.5H127C128.105 145.5 129 144.605 129 143.5V71.5607ZM70 119.5H78H78.2929C78.7456 119.5 79.1799 119.68 79.5 120C79.8201 120.32 80 120.754 80 121.207V121.5V127.5V129C80 129.658 80.1531 130.306 80.4472 130.894L80.5 131L81 132L81.5108 132.766C81.8314 133.247 82.2719 133.636 82.7889 133.894C82.9295 133.965 83.0748 134.025 83.2239 134.075L83.7885 134.263C84.2598 134.42 84.7533 134.5 85.25 134.5H85.4923C85.8286 134.5 86.1626 134.446 86.4816 134.339C87.1417 134.119 87.7095 133.686 88.0954 133.107L88.5 132.5L88.7846 131.931C88.928 131.644 89.0509 131.347 89.1523 131.043C89.3826 130.352 89.5 129.629 89.5 128.9V128.5V127V121.781C89.5 121.262 89.4364 120.746 89.3106 120.243C89.1056 119.422 88.7387 118.652 88.2315 117.975L87.5 117L85.5 114.5L85.2488 114.249C84.4194 113.419 83.4914 112.695 82.4857 112.091C81.8296 111.698 81.1431 111.357 80.4327 111.073L80.25 111C79.418 110.667 78.614 110.268 77.8456 109.807L76.5 109L75.4454 108.209C74.8159 107.737 74.2207 107.221 73.6643 106.664C72.89 105.89 72.1941 105.041 71.5866 104.13L70.9936 103.24C70.0005 101.751 69.1649 100.162 68.5 98.5L67.5 95.5L67.4903 95.4515C67.1642 93.8211 67 92.1626 67 90.5V88L67.5 83.5L67.9577 81.6693C68.3181 80.2274 68.8353 78.8293 69.5 77.5L71 75L71.5804 74.2261C72.1904 73.4128 72.9128 72.6904 73.7261 72.0804C74.241 71.6943 74.7896 71.3552 75.3652 71.0674L76.5 70.5L76.7454 70.3773C77.9086 69.7957 79.1522 69.3913 80.435 69.1775C81.1438 69.0594 81.8611 69 82.5797 69H83.5H85.5H88.5H90C90.6623 69 91.3203 69.1068 91.9487 69.3162L92.5 69.5C93.4987 69.8329 94.4726 70.2363 95.4142 70.7071L96 71C96.994 71.6627 97.8799 72.4748 98.6262 73.4077L98.6888 73.486C99.2281 74.1601 99.6947 74.8893 100.081 75.6615L100.5 76.5C101.165 78.1618 101.648 79.8905 101.943 81.6559L102 82L102.219 83.5301C102.406 84.8417 102.5 86.165 102.5 87.4899V89.5V91.5V91.7929C102.5 92.2456 102.32 92.6799 102 93L101.822 93.1779C101.609 93.3913 101.362 93.5688 101.093 93.7037C100.703 93.8986 100.273 94 99.8374 94H99H95H91.7071C91.2544 94 90.8201 93.8201 90.5 93.5L90.3221 93.3221C90.1087 93.1087 89.9312 92.8624 89.7963 92.5926C89.6014 92.2029 89.5 91.7732 89.5 91.3374V91V88.5V86.5V84V83.6626C89.5 83.2268 89.3986 82.7971 89.2037 82.4074C89.0688 82.1376 88.8913 81.8913 88.6779 81.6779L88.3221 81.3221C88.1087 81.1087 87.8624 80.9312 87.5926 80.7963C87.2029 80.6014 86.7732 80.5 86.3374 80.5H86H85H84.6626C84.2268 80.5 83.7971 80.6014 83.4074 80.7963L83.3162 80.8419C83.1068 80.9466 82.9156 81.0844 82.75 81.25C82.5844 81.4156 82.4466 81.6068 82.3419 81.8162L82 82.5L81.5 83.5L81.2154 84.0693C81.072 84.3561 80.9491 84.6527 80.8477 84.9568C80.6174 85.6478 80.5 86.3713 80.5 87.0996V87.5V89.5V90.4189C80.5 91.4661 80.6688 92.5065 81 93.5C81.3312 94.4935 81.8203 95.4271 82.4487 96.2649L82.5432 96.3909C82.8473 96.7964 83.1799 97.1799 83.5384 97.5384L84.0446 98.0446C85.0125 99.0125 86.0736 99.8824 87.2126 100.642L88.5 101.5L91 103L92.9521 104.394C93.9823 105.13 94.9499 105.95 95.845 106.845C96.614 107.614 97.3275 108.437 97.98 109.307L98.4994 109.999C99.4978 111.33 100.374 112.749 101.118 114.237L101.569 115.139C101.856 115.712 102.102 116.305 102.305 116.914L102.368 117.103C102.786 118.359 103 119.675 103 121V124V126.95C103 128.646 102.833 130.337 102.5 132L102 134L101 136.5L99.5 139.5L99.2679 139.887C98.4331 141.278 97.2996 142.467 95.9495 143.367C95.3182 143.788 94.6449 144.142 93.9405 144.424L93.5946 144.562C92.8661 144.854 92.1151 145.086 91.3492 145.256L90.588 145.425C88.8679 145.807 87.111 146 85.3488 146H84H81.6056C79.2545 146 76.9562 145.304 75 144L74.5274 143.685C72.859 142.573 71.4273 141.141 70.3151 139.473C69.4436 138.165 68.7803 136.731 68.3487 135.22L68.3186 135.115C68.1065 134.373 67.9488 133.616 67.8467 132.85L67 126.5V122.5C67 120.843 68.3431 119.5 70 119.5Z" fill="url(#paint0_linear_20_221)"/>
<defs>
<linearGradient id="paint0_linear_20_221" x1="107" y1="0" x2="107" y2="214" gradientUnits="userSpaceOnUse">
<stop offset="6.65153e-05" stop-color="#6A89FD"/>
<stop offset="0.191057" stop-color="#D1A2FF"/>
<stop offset="0.315" stop-color="#B2C4FF"/>
<stop offset="0.719953" stop-color="#DAE3FF"/>
<stop offset="0.9" stop-color="white"/>
</linearGradient>
</defs>
</svg>
