<svg width="215" height="215" viewBox="0 0 215 215" fill="none" xmlns="http://www.w3.org/2000/svg">
<path fill-rule="evenodd" clip-rule="evenodd" d="M172.713 192.974C219.718 157.159 228.789 90.0208 192.974 43.0159C157.16 -3.98889 90.021 -13.0602 43.0161 22.7546C-3.9887 58.5694 -13.06 125.708 22.7548 172.713C58.5696 219.718 125.708 228.789 172.713 192.974ZM55.6061 71.0935C55.6061 70.4188 55.3543 69.7717 54.9061 69.2946C54.4579 68.8176 53.85 68.5495 53.2162 68.5495L43.6141 68.5495C42.9427 68.5495 42.3158 68.9067 41.9433 69.5013C41.7234 69.8524 41.6061 70.2649 41.6061 70.6869L41.6061 143.249C41.6061 143.742 41.8676 144.192 42.2815 144.412C42.4511 144.503 42.6382 144.55 42.8279 144.55L53.7394 144.55C54.7704 144.55 55.6061 143.66 55.6061 142.563L55.6061 71.0935ZM129.602 71.6731C129.602 70.994 129.332 70.3427 128.852 69.8624C128.372 69.3822 127.72 69.1125 127.041 69.1125L116.753 69.1125C116.034 69.1125 115.362 69.4719 114.963 70.0705C114.728 70.4239 114.602 70.8391 114.602 71.2638L114.602 144.303C114.602 144.799 114.882 145.253 115.326 145.474C115.507 145.565 115.708 145.612 115.911 145.612L127.602 145.612C128.707 145.612 129.602 144.717 129.602 143.612L129.602 71.6731ZM70.6012 119.333L78.6012 119.333L78.8941 119.333C79.3469 119.333 79.7811 119.513 80.1012 119.833C80.4214 120.153 80.6012 120.587 80.6012 121.04L80.6012 121.333L80.6012 127.333L80.6012 128.833C80.6012 129.491 80.7543 130.139 81.0484 130.727L81.1012 130.833L81.6012 131.833L82.112 132.599C82.4326 133.08 82.8731 133.469 83.3901 133.727C83.5307 133.798 83.6761 133.858 83.8251 133.908L84.3897 134.096C84.861 134.253 85.3545 134.333 85.8512 134.333L86.0935 134.333C86.4298 134.333 86.7639 134.279 87.0829 134.172C87.7429 133.952 88.3107 133.519 88.6967 132.94L89.1012 132.333L89.3859 131.764C89.5293 131.477 89.6521 131.18 89.7535 130.876C89.9838 130.185 90.1012 129.462 90.1012 128.733L90.1012 128.333L90.1012 126.833L90.1012 121.614C90.1012 121.095 90.0376 120.579 89.9119 120.075C89.7068 119.255 89.34 118.485 88.8328 117.808L88.1012 116.833L86.1012 114.333L85.85 114.082C85.0206 113.252 84.0926 112.528 83.0869 111.924C82.4308 111.531 81.7443 111.19 81.034 110.906L80.8512 110.833C80.0192 110.5 79.2152 110.101 78.4468 109.64L77.1012 108.833L76.0467 108.042C75.4172 107.57 74.822 107.054 74.2656 106.497C73.4912 105.723 72.7953 104.874 72.1878 103.963L71.5948 103.073C70.6018 101.584 69.7661 99.9951 69.1012 98.333L68.1012 95.333L68.0915 95.2844C67.7655 93.6541 67.6012 91.9956 67.6012 90.333L67.6012 87.833L68.1012 83.333L68.5589 81.5023C68.9194 80.0604 69.4366 78.6623 70.1012 77.333L71.6012 74.833L72.1816 74.0591C72.7916 73.2458 73.5141 72.5233 74.3273 71.9134C74.8422 71.5272 75.3908 71.1882 75.9665 70.9003L77.1012 70.333L77.3467 70.2102C78.5098 69.6287 79.7534 69.2243 81.0362 69.0105C81.745 68.8923 82.4624 68.833 83.1809 68.833L84.1012 68.833L86.1012 68.833L89.1012 68.833L90.6012 68.833C91.2636 68.833 91.9216 68.9397 92.5499 69.1492L93.1012 69.333C94.1 69.6659 95.0738 70.0693 96.0154 70.5401L96.6012 70.833C97.5953 71.4957 98.4811 72.3078 99.2274 73.2407L99.29 73.319C99.8293 73.9931 100.296 74.7223 100.682 75.4944L101.101 76.333C101.766 77.9948 102.25 79.7234 102.544 81.4889L102.601 81.833L102.82 83.3631C103.007 84.6747 103.101 85.9979 103.101 87.3229L103.101 89.333L103.101 91.333L103.101 91.6258C103.101 92.0786 102.921 92.5128 102.601 92.833L102.423 93.0109C102.21 93.2242 101.964 93.4017 101.694 93.5366C101.304 93.7315 100.874 93.833 100.439 93.833L99.6012 93.833L95.6012 93.833L92.3083 93.833C91.8556 93.833 91.4214 93.6531 91.1012 93.333L90.9233 93.155C90.71 92.9417 90.5324 92.6954 90.3975 92.4256C90.2027 92.0359 90.1012 91.6061 90.1012 91.1704L90.1012 90.833L90.1012 88.333L90.1012 86.333L90.1012 83.833L90.1012 83.4955C90.1012 83.0598 89.9998 82.6301 89.8049 82.2403C89.67 81.9705 89.4925 81.7242 89.2792 81.5109L88.9233 81.155C88.71 80.9417 88.4637 80.7642 88.1938 80.6293C87.8041 80.4344 87.3744 80.333 86.9387 80.333L86.6012 80.333L85.6012 80.333L85.2638 80.333C84.8281 80.333 84.3983 80.4344 84.0086 80.6293L83.9174 80.6748C83.708 80.7796 83.5168 80.9174 83.3512 81.083C83.1856 81.2485 83.0478 81.4397 82.9431 81.6492L82.6012 82.333L82.1012 83.333L81.8166 83.9022C81.6732 84.189 81.5503 84.4856 81.4489 84.7898C81.2186 85.4807 81.1012 86.2042 81.1012 86.9325L81.1012 87.333L81.1012 89.333L81.1012 90.2518C81.1012 91.2991 81.2701 92.3395 81.6012 93.333C81.9324 94.3265 82.4216 95.2601 83.0499 96.0979L83.1444 96.2238C83.4486 96.6294 83.7811 97.0129 84.1396 97.3713L84.6458 97.8775C85.6137 98.8454 86.6749 99.7154 87.8138 100.475L89.1012 101.333L91.6012 102.833L93.5534 104.227C94.5835 104.963 95.5511 105.783 96.4463 106.678C97.2153 107.447 97.9287 108.27 98.5813 109.14L99.1006 109.832C100.099 111.163 100.976 112.582 101.72 114.07L102.171 114.972C102.457 115.545 102.703 116.138 102.906 116.747L102.969 116.936C103.388 118.192 103.601 119.508 103.601 120.833L103.601 123.833L103.601 126.783C103.601 128.479 103.434 130.17 103.101 131.833L102.601 133.833L101.601 136.333L100.101 139.333L99.8692 139.72C99.0343 141.111 97.9009 142.3 96.5507 143.2C95.9194 143.621 95.2462 143.975 94.5417 144.257L94.1958 144.395C93.4673 144.687 92.7164 144.918 91.9504 145.089L91.1893 145.258C89.4691 145.64 87.7122 145.833 85.95 145.833L84.6012 145.833L82.2068 145.833C79.8558 145.833 77.5574 145.137 75.6012 143.833L75.1286 143.518C73.4602 142.406 72.0286 140.974 70.9163 139.306C70.0449 137.998 69.3815 136.564 68.9499 135.053L68.9199 134.948C68.7077 134.206 68.55 133.449 68.4479 132.683L67.6012 126.333L67.6012 122.333C67.6012 120.676 68.9444 119.333 70.6012 119.333ZM155.603 96.717L155.603 108.4L155.886 119.4L155.886 121.9L155.886 122.56C155.886 124.448 156.077 126.332 156.456 128.182L156.603 128.9L156.996 130.864C157.067 131.22 157.185 131.564 157.347 131.888L157.396 131.985C157.849 132.891 158.643 133.58 159.603 133.9C160.563 134.22 161.612 134.145 162.517 133.693L163.103 133.4L163.618 133.056C164.263 132.626 164.785 132.035 165.132 131.341C165.442 130.722 165.603 130.039 165.603 129.347L165.603 128.9L165.603 125.4L165.603 122.9L165.603 121.9L165.603 121.518C165.603 120.833 165.99 120.206 166.603 119.9C167.261 119.571 167.986 119.4 168.721 119.4L171.103 119.4L174.603 119.4L175.94 119.4C176.376 119.4 176.806 119.501 177.196 119.696L177.287 119.742C177.496 119.846 177.687 119.984 177.853 120.15C178.019 120.315 178.156 120.506 178.261 120.716L178.307 120.807C178.502 121.197 178.603 121.627 178.603 122.062L178.603 122.4L178.603 125.4L178.603 125.953C178.603 128.242 178.322 130.523 177.767 132.744L177.603 133.4L177.034 135.108C176.747 135.968 176.399 136.807 175.994 137.618L175.816 137.974C175.012 139.581 173.955 141.047 172.685 142.317L172.204 142.799C171.473 143.529 170.648 144.159 169.751 144.672C168.335 145.481 166.764 145.984 165.141 146.146L162.603 146.4L161.119 146.4C159.121 146.4 157.127 146.074 155.232 145.443C154.152 145.083 153.102 144.621 152.107 144.069L151.423 143.688C149.889 142.837 148.527 141.709 147.404 140.361C146.871 139.721 146.395 139.036 145.982 138.313L145.662 137.753C144.958 136.52 144.377 135.222 143.928 133.875L142.798 130.484C142.335 129.097 141.982 127.675 141.742 126.233L141.103 122.4L140.603 115.4L140.603 107.4L140.603 101.9L141.103 95.8997L141.436 91.9074C141.547 90.5706 141.754 89.2436 142.056 87.9366L143.103 83.3997L144.451 79.6928C144.885 78.4996 145.42 77.3455 146.05 76.2431L146.519 75.422C146.907 74.742 147.36 74.1003 147.869 73.5056L148.045 73.3007C149.392 71.7296 151.14 70.554 153.103 69.8997L154.167 69.5805C156.777 68.7975 159.487 68.3997 162.213 68.3997L163.103 68.3997L165.276 68.6411C166.815 68.8121 168.316 69.2564 169.702 69.949C170.958 70.5774 172.109 71.4062 173.103 72.3997C174.096 73.3932 174.923 74.5404 175.552 75.797L175.909 76.5109C176.371 77.435 176.752 78.3973 177.049 79.3869L177.429 80.6537C177.878 82.1484 178.2 83.678 178.394 85.2265L178.603 86.8997L178.603 90.8997L178.603 91.2816C178.603 92.0169 178.432 92.7421 178.103 93.3997L177.896 93.8143C177.706 94.1943 177.398 94.5024 177.018 94.6924C176.745 94.8287 176.444 94.8997 176.139 94.8997L173.603 94.8997L170.603 94.8997L169.038 94.8997C168.749 94.8997 168.461 94.8642 168.181 94.7941L167.688 94.6708C166.999 94.4987 166.42 94.0344 166.103 93.3997C165.774 92.7421 165.603 92.0169 165.603 91.2816L165.603 89.8997L165.603 88.4612C165.603 87.092 165.435 85.728 165.103 84.3997L164.277 82.3348C164.162 82.0477 163.99 81.787 163.772 81.5683C163.344 81.1402 162.763 80.8997 162.157 80.8997L160.603 80.8997C159.409 80.8997 158.348 81.664 157.971 82.797L157.25 84.9579C157.152 85.252 157.077 85.5533 157.026 85.859L155.984 92.1139C155.73 93.6351 155.603 95.1748 155.603 96.717Z" fill="url(#paint0_linear_20_227)"/>
<defs>
<linearGradient id="paint0_linear_20_227" x1="209.627" y1="74.799" x2="6.1005" y2="140.929" gradientUnits="userSpaceOnUse">
<stop offset="0.17" stop-color="#6A89FD"/>
<stop offset="0.525" stop-color="#D1A2FF"/>
<stop offset="0.719953" stop-color="#DAE3FF"/>
<stop offset="0.82" stop-color="#F7FFD8"/>
<stop offset="0.98" stop-color="white"/>
</linearGradient>
</defs>
</svg>
